<svg xmlns="http://www.w3.org/2000/svg" viewBox="0 0 32 32"><defs><style>.cls-1{fill:#3e3e3e;}</style></defs><title>Recurso 1</title><g id="Capa_2" data-name="Capa 2"><g id="Icons"><g id="User"><path class="cls-1" d="M16,22c5,0,9-4.93,9-11S21,0,16,0A8.23,8.23,0,0,0,9.56,3.3,12.34,12.34,0,0,0,7,11C7,17.07,11,22,16,22ZM16,2c3.86,0,7,4,7,9s-3.14,9-7,9-7-4-7-9S12.14,2,16,2Zm7,18a1,1,0,0,0,0,2,7,7,0,0,1,7,7,1,1,0,0,1-1,1H3a1,1,0,0,1-1-1,7,7,0,0,1,7-7,1,1,0,0,0,0-2,9,9,0,0,0-9,9,3,3,0,0,0,3,3H29a3,3,0,0,0,3-3A9,9,0,0,0,23,20Z"/></g></g></g></svg>